<svg xmlns="http://www.w3.org/2000/svg" width="77" height="24" fill="none"><g fill="#000" filter="url(#a)"><path d="M4.01 7.13h9.006V4.858H4.01v2.274Zm2.607 4.675c0 1.196.352 2.075 1.058 2.636.705.556 1.633.833 2.783.833.47 0 .898-.029 1.284-.088.392-.059.692-.127.901-.206l-.01-2.205a7.072 7.072 0 0 1-.666.147 4.23 4.23 0 0 1-.715.06c-.523 0-.934-.095-1.235-.285-.294-.196-.44-.542-.44-1.039V2.28h-2.94V5.7l-.02.265v5.84ZM14.045 12.011c0 1.039.486 1.83 1.46 2.372.973.535 2.195.803 3.665.803 1.352 0 2.519-.143 3.499-.431.986-.294 1.633-.647 1.94-1.058.033.235.095.477.186.725.092.242.196.434.314.578h2.89v-.157a2.988 2.988 0 0 1-.45-.95 4.228 4.228 0 0 1-.167-1.196V8.072c0-1.183-.539-2.062-1.617-2.637-1.071-.581-2.564-.872-4.478-.872-1.914 0-3.466.284-4.655.853-1.19.562-1.784 1.336-1.784 2.322v.226h2.91v-.216c0-.353.275-.624.824-.813.555-.196 1.398-.294 2.528-.294 1.176 0 2.023.117 2.539.353.516.235.774.581.774 1.038v.579L20.59 8.6c-1.94 0-3.518.29-4.733.872-1.209.581-1.813 1.427-1.813 2.538Zm2.979-.196c0-.457.35-.803 1.049-1.039.705-.241 1.708-.359 3.008-.352h3.352v.882c0 .529-.425.966-1.274 1.313-.85.346-1.817.52-2.901.52-1.11 0-1.927-.112-2.45-.334-.523-.229-.784-.559-.784-.99ZM29.94 15h2.97v-3.263l10.21-6.89h-4.066l-6.145 3.734V.663H29.94V15Zm9.986 0h3.842l-7.566-7.183-2.156 1.725L39.926 15ZM43.807 10.07c0 1.569.666 2.833 1.999 3.793 1.34.954 3.172 1.431 5.498 1.431 1.496 0 2.786-.2 3.87-.598 1.092-.398 1.872-.937 2.343-1.617l-2.107-1.401c-.405.372-.96.692-1.666.96-.706.262-1.523.392-2.45.392-1.503 0-2.656-.255-3.46-.764-.797-.516-1.195-1.212-1.195-2.088V9.63c0-.87.372-1.565 1.117-2.088.745-.522 1.777-.784 3.097-.784 1.529 0 2.574.196 3.136.588.562.386.846.925.852 1.617l-.01-.137h-9.29v1.852h12.191V9.6c.007-1.568-.594-2.8-1.803-3.694-1.209-.902-2.858-1.353-4.949-1.353-2.09 0-3.809.48-5.154 1.441-1.346.954-2.02 2.211-2.02 3.773v.304ZM58.938 10.07c0 1.569.666 2.833 1.999 3.793 1.34.954 3.172 1.431 5.498 1.431 1.496 0 2.786-.2 3.87-.598 1.091-.398 1.872-.937 2.343-1.617l-2.107-1.401c-.405.372-.96.692-1.666.96-.706.262-1.523.392-2.45.392-1.503 0-2.656-.255-3.46-.764-.797-.516-1.195-1.212-1.195-2.088V9.63c0-.87.372-1.565 1.117-2.088.745-.522 1.777-.784 3.097-.784 1.529 0 2.574.196 3.136.588.561.386.846.925.852 1.617l-.01-.137h-9.29v1.852h12.191V9.6c.007-1.568-.594-2.8-1.803-3.694-1.209-.902-2.858-1.353-4.949-1.353-2.09 0-3.809.48-5.155 1.441-1.345.954-2.018 2.211-2.018 3.773v.304Z"/></g><defs><filter id="a" width="76.853" height="22.631" x=".01" y=".663" color-interpolation-filters="sRGB" filterUnits="userSpaceOnUse"><feFlood flood-opacity="0" result="BackgroundImageFix"/><feColorMatrix in="SourceAlpha" result="hardAlpha" values="0 0 0 0 0 0 0 0 0 0 0 0 0 0 0 0 0 0 127 0"/><feOffset dy="4"/><feGaussianBlur stdDeviation="2"/><feComposite in2="hardAlpha" operator="out"/><feColorMatrix values="0 0 0 0 0 0 0 0 0 0 0 0 0 0 0 0 0 0 0.25 0"/><feBlend in2="BackgroundImageFix" result="effect1_dropShadow_9_1895"/><feBlend in="SourceGraphic" in2="effect1_dropShadow_9_1895" result="shape"/></filter></defs></svg>